<svg xmlns="http://www.w3.org/2000/svg" width="40" height="40" viewBox="0 0 40 40">
  <g id="Group_2620" data-name="Group 2620" transform="translate(-145 -177)">
    <rect id="Rectangle_5751" data-name="Rectangle 5751" width="40" height="40" transform="translate(145 177)" fill="none"/>
    <g id="Group-4" transform="translate(154 190)">
      <g id="Group-3" transform="translate(0 0)">
        <path id="Fill-246" d="M40.6,25.116a1.567,1.567,0,0,0-1.567,1.567,1.543,1.543,0,0,0,.214.776h-.214v.791H40.6a1.567,1.567,0,0,0,0-3.134" transform="translate(-20.595 -13.25)" fill="#f2a35e" fill-rule="evenodd"/>
        <path id="Fill-247" d="M42.1,28.317a1.423,1.423,0,0,0-.018-.927H39.123a1.562,1.562,0,0,0-.086.493,1.485,1.485,0,0,0,.066.435Z" transform="translate(-20.595 -14.45)" fill="#f26666" fill-rule="evenodd"/>
        <path id="Fill-248" d="M38.854,26.683a1.567,1.567,0,1,0-1.567,1.567,1.567,1.567,0,0,0,1.567-1.567" transform="translate(-18.845 -13.25)" fill="#f26666" fill-rule="evenodd"/>
        <path id="Fill-249" d="M24.9,13.433H12.26a.953.953,0,0,1-.953-.953V1.815A1.814,1.814,0,0,1,13.121,0h8.17A3.608,3.608,0,0,1,24.9,3.608Z" transform="translate(-5.965 0)" fill="#efe6df" fill-rule="evenodd"/>
        <path id="Fill-250" d="M34.963,7.777H30.105a1.334,1.334,0,0,0-1.334,1.334v8.424h8.491a.593.593,0,0,0,.593-.593V10.67a2.893,2.893,0,0,0-2.893-2.893" transform="translate(-15.179 -4.103)" fill="#f2a35e" fill-rule="evenodd"/>
        <path id="Fill-251" d="M30.568,25.062a1.58,1.58,0,0,0-1.58,1.58,1.561,1.561,0,0,0,.215.782h-.215v.8h1.58a1.58,1.58,0,1,0,0-3.159" transform="translate(-15.293 -13.222)" fill="#f2a35e" fill-rule="evenodd"/>
        <path id="Fill-252" d="M32.079,28.289a1.446,1.446,0,0,0-.018-.935H29.077a1.55,1.55,0,0,0-.088.5,1.508,1.508,0,0,0,.067.438Z" transform="translate(-15.294 -14.431)" fill="#f26666" fill-rule="evenodd"/>
        <path id="Fill-253" d="M37.848,14.348H34.4V10.67a2.893,2.893,0,0,0-2.893-2.893H28.771v9.759h5.04a.593.593,0,0,0,.593-.593V14.951a.351.351,0,0,1,.351-.351h3.093Z" transform="translate(-15.179 -4.103)" fill="#f26666" fill-rule="evenodd"/>
        <path id="Fill-254" d="M18.48,25.116a1.567,1.567,0,0,0-1.567,1.567,1.543,1.543,0,0,0,.214.776h-.214v.791H18.48a1.567,1.567,0,0,0,0-3.134" transform="translate(-8.923 -13.25)" fill="#f2a35e" fill-rule="evenodd"/>
        <path id="Fill-255" d="M19.978,28.317a1.423,1.423,0,0,0-.018-.927H17a1.562,1.562,0,0,0-.086.493,1.485,1.485,0,0,0,.066.435Z" transform="translate(-8.923 -14.45)" fill="#f26666" fill-rule="evenodd"/>
        <path id="Fill-256" d="M16.73,26.683a1.567,1.567,0,1,0-1.567,1.567,1.567,1.567,0,0,0,1.567-1.567" transform="translate(-7.173 -13.25)" fill="#f26666" fill-rule="evenodd"/>
        <path id="Fill-257" d="M8.488,25.062a1.58,1.58,0,0,0-1.58,1.58,1.561,1.561,0,0,0,.215.782H6.908v.8h1.58a1.58,1.58,0,1,0,0-3.159" transform="translate(-3.645 -13.222)" fill="#f2a35e" fill-rule="evenodd"/>
        <path id="Fill-258" d="M10,28.289a1.442,1.442,0,0,0-.018-.935H7a1.562,1.562,0,0,0-.087.5,1.492,1.492,0,0,0,.067.438Z" transform="translate(-3.645 -14.431)" fill="#f26666" fill-rule="evenodd"/>
        <path id="Fill-259" d="M13.592,13.433H.953A.953.953,0,0,1,0,12.479V1.774A1.774,1.774,0,0,1,1.774,0h8.21a3.608,3.608,0,0,1,3.608,3.608Z" transform="translate(0 0)" fill="#e2dad5" fill-rule="evenodd"/>
        <path id="Fill-260" d="M16.261,25.089a.62.62,0,0,1-.553-.345,2.319,2.319,0,0,0-4.158,0,.619.619,0,0,1-.553.345H5.914a.618.618,0,0,1-.553-.345,2.319,2.319,0,0,0-4.158,0,.619.619,0,0,1-.553.345H.07a.951.951,0,0,0,.92.717H13.63v-.015h1.486v.015h7.005a.593.593,0,0,0,.593-.593v-.124Z" transform="translate(-0.037 -12.373)" fill="#efe6df" fill-rule="evenodd"/>
        <path id="Fill-261" d="M6.685,26.683A1.567,1.567,0,1,0,5.119,28.25a1.567,1.567,0,0,0,1.567-1.567" transform="translate(-1.873 -13.25)" fill="#f26666" fill-rule="evenodd"/>
        <path id="Fill-262" d="M6.822,28a.392.392,0,1,0-.392.392A.392.392,0,0,0,6.822,28" transform="translate(-3.186 -14.563)" fill="#efe6df" fill-rule="evenodd"/>
        <path id="Fill-263" d="M36.064,27.04v-.124H31.917v.717h3.554a.593.593,0,0,0,.593-.593" transform="translate(-16.838 -14.2)" fill="#efe6df" fill-rule="evenodd"/>
        <path id="Fill-264" d="M28.589,26.683a1.567,1.567,0,1,0-1.567,1.567,1.567,1.567,0,0,0,1.567-1.567" transform="translate(-13.429 -13.25)" fill="#f26666" fill-rule="evenodd"/>
        <path id="Fill-265" d="M28.725,28a.392.392,0,1,0-.392.392A.392.392,0,0,0,28.725,28" transform="translate(-14.741 -14.563)" fill="#efe6df" fill-rule="evenodd"/>
        <path id="Fill-266" d="M41.306,14.5H35.965a.654.654,0,0,0-.653.653v2.089a.653.653,0,0,0,.653.653h5.341Z" transform="translate(-18.629 -7.65)" fill="#efe6df" fill-rule="evenodd"/>
        <path id="Fill-267" d="M37.855,14.5H35.568a.256.256,0,0,0-.256.256v2.486a.653.653,0,0,0,.653.653h1.89Z" transform="translate(-18.629 -7.65)" fill="#e2dad5" fill-rule="evenodd"/>
        <path id="Fill-268" d="M42.927,23.927H38.579a.193.193,0,1,0,0,.386h4.349Z" transform="translate(-20.251 -12.623)" fill="#efe6df" fill-rule="evenodd"/>
        <path id="Fill-269" d="M39.476,23.927h-.9a.193.193,0,1,0,0,.386h.9Z" transform="translate(-20.251 -12.623)" fill="#fff" fill-rule="evenodd"/>
        <path id="Fill-270" d="M46.905,24.314h.517v-.386h-.517Z" transform="translate(-24.746 -12.623)" fill="#fff" fill-rule="evenodd"/>
        <path id="Fill-346" d="M13.779,13.5H9.443a.316.316,0,0,1-.317-.316V8.844a.316.316,0,0,1,.317-.316h4.336a.316.316,0,0,1,.316.316V13.18a.316.316,0,0,1-.316.316" transform="translate(-4.815 -4.499)" fill="#fff" fill-rule="evenodd"/>
        <path id="Fill-347" d="M14.11,9.85H12.966a.187.187,0,0,1-.187-.187V8.528H14.3V9.663a.187.187,0,0,1-.187.187" transform="translate(-6.742 -4.499)" fill="#efe6df" fill-rule="evenodd"/>
      </g>
    </g>
  </g>
</svg>
