<svg xmlns="http://www.w3.org/2000/svg" width="40" height="40" viewBox="0 0 40 40">
  <g id="Group_2618" data-name="Group 2618" transform="translate(-191 -177)">
    <g id="Page-1" transform="translate(199 186.954)">
      <g id="Group" transform="translate(0 0.046)">
        <path id="Fill-862" d="M35,30.514a1.885,1.885,0,0,0-1.639,2.837H33.1v.957H35a1.9,1.9,0,0,0,0-3.794" transform="translate(-16.293 -15.019)" fill="#f26666" fill-rule="evenodd"/>
        <path id="Fill-863" d="M36.812,34.2a1.86,1.86,0,0,0,.083-.526,1.88,1.88,0,0,0-.105-.6H33.206a1.88,1.88,0,0,0-.105.6,1.8,1.8,0,0,0,.081.526Z" transform="translate(-16.292 -16.279)" fill="#f26666" fill-rule="evenodd"/>
        <path id="Fill-864" d="M33.16,32.411a1.9,1.9,0,1,0-1.9,1.9,1.9,1.9,0,0,0,1.9-1.9" transform="translate(-14.454 -15.019)" fill="#f26666" fill-rule="evenodd"/>
        <path id="Fill-865" d="M33.168,32.165H32.66a1.643,1.643,0,0,0-3.287,0h-.508a2.151,2.151,0,0,1,4.3,0" transform="translate(-14.208 -14.773)" fill="#efe6df" fill-rule="evenodd"/>
        <path id="Fill-866" d="M18.426,30.514a1.885,1.885,0,0,0-1.639,2.837h-.258v.957h1.9a1.9,1.9,0,0,0,0-3.794" transform="translate(-8.135 -15.019)" fill="#f2a35e" fill-rule="evenodd"/>
        <path id="Fill-867" d="M20.239,34.2a1.86,1.86,0,0,0,.083-.526,1.88,1.88,0,0,0-.105-.6H16.633a1.88,1.88,0,0,0-.105.6,1.8,1.8,0,0,0,.081.526Z" transform="translate(-8.135 -16.279)" fill="#f26666" fill-rule="evenodd"/>
        <path id="Fill-868" d="M20.117,15.522,17.4,2.192a.2.2,0,0,0-.2-.16h-.571a1.016,1.016,0,0,1,0-2.031h1.565a1.016,1.016,0,0,1,1,.812l2.921,14.3Z" transform="translate(-7.684 0)" fill="#efe6df" fill-rule="evenodd"/>
        <path id="Fill-869" d="M28.042,31.6H9.477a.668.668,0,0,1-.668-.668V29.543a.668.668,0,0,1,.668-.668H28.042a.668.668,0,0,1,.668.668v1.393a.668.668,0,0,1-.668.668" transform="translate(-4.336 -14.212)" fill="#efe6df" fill-rule="evenodd"/>
        <path id="Fill-870" d="M21.22,30.935V29.543a.668.668,0,0,0-.668-.669H9.477a.668.668,0,0,0-.668.669v1.392a.668.668,0,0,0,.668.668H20.552a.668.668,0,0,0,.668-.668" transform="translate(-4.336 -14.212)" fill="#e2dad5" fill-rule="evenodd"/>
        <path id="Fill-871" d="M4.506,15.522,1.784,2.192a.2.2,0,0,0-.2-.16H1.016A1.016,1.016,0,0,1,1.016,0H2.58a1.016,1.016,0,0,1,1,.812L6.5,15.115Z" transform="translate(0 0)" fill="#e2dad5" fill-rule="evenodd"/>
        <path id="Fill-872" d="M16.587,32.411a1.9,1.9,0,1,0-1.9,1.9,1.9,1.9,0,0,0,1.9-1.9" transform="translate(-6.296 -15.019)" fill="#f26666" fill-rule="evenodd"/>
        <path id="Fill-873" d="M16.595,32.165h-.508a1.643,1.643,0,0,0-3.287,0h-.508a2.151,2.151,0,0,1,4.3,0" transform="translate(-6.05 -14.773)" fill="#efe6df" fill-rule="evenodd"/>
        <path id="Fill-874" d="M16.543,33.79a.474.474,0,1,0-.475.474.475.475,0,0,0,.475-.474" transform="translate(-7.676 -16.398)" fill="#efe6df" fill-rule="evenodd"/>
        <path id="Fill-875" d="M24.346,16.659H19.388a.115.115,0,0,1-.115-.115V4.171a.115.115,0,0,1,.115-.115h4.958a.115.115,0,0,1,.115.115V16.545a.115.115,0,0,1-.115.115" transform="translate(-9.486 -1.997)" fill="#f2a35e" fill-rule="evenodd"/>
        <path id="Fill-876" d="M12.115,16.659A.115.115,0,0,1,12,16.545V4.171a.115.115,0,0,1,.114-.115h4.958a.115.115,0,0,1,.115.115V16.545a.115.115,0,0,1-.115.115Z" transform="translate(-5.906 -1.997)" fill="#f26666" fill-rule="evenodd"/>
        <path id="Fill-877" d="M16.878,5.4h-.986a.252.252,0,0,1-.252-.252V4.056h1.49V5.143a.253.253,0,0,1-.252.252" transform="translate(-7.698 -1.996)" fill="#efe6df" fill-rule="evenodd"/>
        <path id="Fill-878" d="M37.528,24.319H32.571a.115.115,0,0,1-.114-.115v-4.47a.115.115,0,0,1,.114-.115h4.958a.116.116,0,0,1,.115.115V24.2a.115.115,0,0,1-.115.115" transform="translate(-15.975 -9.656)" fill="#f2a35e" fill-rule="evenodd"/>
        <path id="Fill-879" d="M30.254,24.319H25.3a.115.115,0,0,1-.115-.115V19.619h5.072a.115.115,0,0,1,.115.115V24.2a.115.115,0,0,1-.115.115" transform="translate(-12.394 -9.656)" fill="#f26666" fill-rule="evenodd"/>
        <path id="Fill-880" d="M30.06,20.958h-.986a.252.252,0,0,1-.252-.252V19.618h1.49v1.087a.253.253,0,0,1-.252.252" transform="translate(-14.186 -9.656)" fill="#efe6df" fill-rule="evenodd"/>
      </g>
    </g>
    <rect id="Rectangle_5752" data-name="Rectangle 5752" width="40" height="40" transform="translate(191 177)" fill="none"/>
  </g>
</svg>
